<?xml version="1.0" encoding="utf-8"?>
<!-- Generator: Adobe Illustrator 22.0.0, SVG Export Plug-In . SVG Version: 6.00 Build 0)  -->
<svg version="1.1" xmlns="http://www.w3.org/2000/svg" xmlns:xlink="http://www.w3.org/1999/xlink" x="0px" y="0px"
	 viewBox="0 0 338.8 74.1" style="enable-background:new 0 0 338.8 74.1;" xml:space="preserve">
<style type="text/css">
	.st0{display:none;}
	.st1{display:inline;fill:#488BC8;}
	.st2{display:inline;fill:none;stroke:#000000;stroke-width:3;stroke-miterlimit:10;}
	.st3{display:inline;}
	.st4{fill:#488BC8;}
	.st5{fill:none;stroke:#FFFFFF;stroke-miterlimit:10;}
	.st6{fill:#FFFFFF;}
	.st7{font-family:'MyriadPro-Regular';}
	.st8{font-size:19.9803px;}
</style>
<g id="Capa_1" class="st0">
	<path class="st1" d="M-7-234c0,0,0.8-13.8,21.3-22c20.5-8.2,42.5,1.2,42.5,1.2s21.3,8.5,27.7,36.8c0,0,2.8,21.5,18.3,21.8
		c0,0,23,2.9,29.2,23.9c6.2,21,0,41.7,0,41.7s-9.2,15.5-28.5,11.3c0,0-5.3,0-26.5-15.3c0,0-14.5-8.7-20.2-7.8c0,0-5,18-13.3,26.2
		S20-110.5,20-110.5s-11.5-2.3-18.3-12.2c0,0-5.7-9.2-2.5-29.7s-17.7-21.3-17.7-21.3s-13.2,3.1-18.7,9.4c0,0-13.3,7.2-28.8-8.2
		s-3-34.7-3-34.7s4.2-11.8,35.3-16.8C-33.7-223.8-11.5-226-7-234z"/>
	<path class="st2" d="M-79.3-142.5l27.7-3.8c0,0,11-2.5,21.2,3.8c0,0,7.5,3.3,12.8,0C-12.3-145.8,2-141,2-141l18.3,6.7
		c0,0,14.7,5.8,25.8,0c0,0,7.2-4.6,17.2,2.6c0,0,5.2,5.4,19,1.6c0,0,6.8-1.7,42.8,3.2c0,0,36.5,1.3,43.8-0.7c0,0,12.4-0.3,18.5-8.3
		c0,0,4-7.6,1.6-13c1.2-0.5,7.4,17.5,0.2,25.1c-6.4,6.8-11,4.2-11,4.2s-1.8,7.7-10.5,4.5c0,0,0.2,6-11.3,7c0,0-22.8,4.8-25,4.5
		c0,0-0.3-7.2-4.5-7.5c-4.2-0.3-4.2,4.7-4.2,4.7s0,5.3-7.2,5.8c0,0-8.7,1.8-10.2-3c0,0-5.7-4.3-10.5,2.5L76.5-101
		c0,0,0.3-3.2-4.2-3.2c0,0-4.7-0.8-5,3.8h-19c0,0-2.5-8-7.8,0h-16c0,0,1.2-3.2-7.5-3.2c0,0-8.8-0.7-9.3,3.2h-10c0,0,0.5-4-5.7-4
		s-5.5,4-5.5,4s-37.3,0.7-50.8-3.3s-17.5-8.2-17.5-8.2s-4.2-2.4,0-11.7c0,0,4.3-6.6,0.8-9.8S-79.3-142.5-79.3-142.5z"/>
	<circle class="st3" cx="34.2" cy="-197.6" r="2"/>
	<circle class="st3" cx="80.7" cy="-177.7" r="2"/>
	<circle class="st3" cx="70.6" cy="-176.6" r="2"/>
	<circle class="st3" cx="64.9" cy="-185.3" r="2"/>
	<circle class="st3" cx="54.8" cy="-184.5" r="2"/>
	<circle class="st3" cx="39.3" cy="-189.4" r="2"/>
	<circle class="st3" cx="24.4" cy="-194.2" r="2"/>
	<circle class="st3" cx="93.7" cy="-171.6" r="2"/>
	<circle class="st3" cx="85.3" cy="-169.5" r="2"/>
	<circle class="st3" cx="49.3" cy="-192.6" r="2"/>
	<path class="st2" d="M190.4-147.7c0,0-5.1-6-34.4-12c0,0-18-4.6-40.5-16s-47-22-47-22S42.2-210,32.2-227s-16.7-10-16.7-10
		s-5,9.3-7,21.3s-10.7,18.3-21.5,18c-10.8-0.2-21.7-3.9-27.8-12.5c-6.2-8.7-9-2.7-9-2.7s2.6-27.9-6.9-27.2s-2.8,17-2.8,17
		s9.8,16.3,6.3,20.5c0,0-4-4-7,1.5s-8,15.7-8,15.7s-3,3.8,2.8,6.7s2.8,7.1,2.8,7.1s-11,15.4-12.5,28.5"/>
	<path class="st2" d="M157-126.7c0,0-4.8-8.3-12.5-11c-7.7-2.7-8.2-5.4-8.2-5.4s-3.7-6.9,11.5-5.9c15.2,1,26,0.4,28.7-5.4"/>
	<path class="st2" d="M23.7-236.9c0,0-8-7.8-6.7-15.7c1.3-7.9,4.3-5.7,4.3-5.7s3.4,0.3,3.2,13.9c0,0-0.2,7,4.2,12.3"/>
	<path class="st2" d="M-32.7-143.7c0,0,15.4-13.9,27.4-13.6s18.7,5,18.7,5s17.3,7.5,4.1,16.9"/>
	<path class="st2" d="M-57.5-145.5c0,0,31.2-30.4,37.4-33.1c0,0,8.2-6.7,20,2l60.7,29.1c0,0,11.5,4.9,0,14"/>
	<path class="st2" d="M14.6-169.5c0,0,9.8-8,26.8-7.1l12.5-0.1c0,0,12.8,0.8,3,11c-9.8,10.2-10.6,11.3-10.6,11.3"/>
	<path class="st2" d="M-53.3-202.5c0,0,27.2,20.5,39.6,21.5"/>
	<path class="st2" d="M-65.5-178.6c0,0,20.5,14.1,26.7,15.4"/>
	<path class="st2" d="M-10.7-181L20-201c0,0,12.8-8.2,26.5,1.3l50,22c0,0,11,4.7,1,14.8s1.3,18.8,1.3,18.8l34,17.2"/>
	<text transform="matrix(1 0 0 1 216.8213 -191.4692)" class="st3"><tspan x="0" y="0" class="st7" style="font-size:76.8318px;">RC </tspan><tspan x="0" y="80" class="st4 st7" style="font-size:76.8318px;">SHOES</tspan></text>
</g>
<g id="Capa_2">
	<rect x="77.6" y="-0.4" width="179.8" height="75.3"/>
	<path class="st4" d="M120.6,19.6c0,0,0.2-3.6,5.5-5.7c5.3-2.1,11,0.3,11,0.3s5.6,2.2,7.2,9.6c0,0,0.7,5.6,4.8,5.7
		c0,0,6,0.8,7.6,6.2s0,10.8,0,10.8s-2.4,4-7.4,2.9c0,0-1.4,0-6.9-4c0,0-3.8-2.3-5.2-2c0,0-1.3,4.7-3.5,6.8s-6.1,1.5-6.1,1.5
		s-3-0.6-4.8-3.2c0,0-1.5-2.4-0.7-7.7c0.8-5.3-4.6-5.5-4.6-5.5s-3.4,0.8-4.9,2.4c0,0-3.5,1.9-7.5-2.1c-4-4-0.8-9-0.8-9
		s1.1-3.1,9.2-4.4C113.6,22.2,119.4,21.6,120.6,19.6z"/>
	<path class="st5" d="M101.8,43.4l7.2-1c0,0,2.9-0.7,5.5,1c0,0,2,0.9,3.3,0s5.1,0.4,5.1,0.4l4.8,1.7c0,0,3.8,1.5,6.7,0
		c0,0,1.9-1.2,4.5,0.7c0,0,1.3,1.4,4.9,0.4c0,0,1.8-0.4,11.1,0.8c0,0,9.5,0.3,11.4-0.2c0,0,3.2-0.1,4.8-2.2c0,0,1.1-2,0.4-3.4
		c0.3-0.1,1.9,4.6,0,6.5c-1.7,1.8-2.9,1.1-2.9,1.1s-0.5,2-2.7,1.2c0,0,0,1.6-2.9,1.8c0,0-5.9,1.3-6.5,1.2c0,0-0.1-1.9-1.2-2
		c-1.1-0.1-1.1,1.2-1.1,1.2s0,1.4-1.9,1.5c0,0-2.3,0.5-2.6-0.8c0,0-1.5-1.1-2.7,0.7l-4.8,0c0,0,0.1-0.8-1.1-0.8c0,0-1.2-0.2-1.3,1
		H135c0,0-0.7-2.1-2,0h-4.2c0,0,0.3-0.8-2-0.8c0,0-2.3-0.2-2.4,0.8h-2.6c0,0,0.1-1-1.5-1c-1.6,0-1.4,1-1.4,1s-9.7,0.2-13.2-0.9
		c-3.5-1-4.6-2.1-4.6-2.1s-1.1-0.6,0-3c0,0,1.1-1.7,0.2-2.5C100.4,44.9,101.8,43.4,101.8,43.4z"/>
	<circle class="st5" cx="131.3" cy="29" r="0.5"/>
	<circle class="st5" cx="143.4" cy="34.2" r="0.5"/>
	<circle class="st5" cx="140.7" cy="34.5" r="0.5"/>
	<circle class="st5" cx="139.3" cy="32.2" r="0.5"/>
	<circle class="st5" cx="136.6" cy="32.4" r="0.5"/>
	<circle class="st5" cx="132.6" cy="31.2" r="0.5"/>
	<circle class="st5" cx="128.8" cy="29.9" r="0.5"/>
	<circle class="st5" cx="146.8" cy="35.8" r="0.5"/>
	<circle class="st5" cx="144.6" cy="36.3" r="0.5"/>
	<circle class="st5" cx="135.2" cy="30.3" r="0.5"/>
	<path class="st5" d="M171.9,42c0,0-1.3-1.6-8.9-3.1c0,0-4.7-1.2-10.5-4.2S140.2,29,140.2,29s-6.9-3.2-9.5-7.6
		c-2.6-4.4-4.3-2.6-4.3-2.6s-1.3,2.4-1.8,5.5s-2.8,4.7-5.6,4.7c-2.8-0.1-5.6-1-7.2-3.3c-1.6-2.3-2.3-0.7-2.3-0.7s0.7-7.3-1.8-7.1
		s-0.7,4.4-0.7,4.4s2.5,4.2,1.6,5.3c0,0-1-1-1.8,0.4s-2.1,4.1-2.1,4.1s-0.8,1,0.7,1.7s0.7,1.8,0.7,1.8s-2.9,4-3.3,7.4"/>
	<path class="st5" d="M163.2,47.5c0,0-1.3-2.2-3.2-2.9s-2.1-1.4-2.1-1.4s-1-1.8,3-1.5c3.9,0.3,6.8,0.1,7.5-1.4"/>
	<path class="st5" d="M128.6,18.8c0,0-2.1-2-1.8-4.1s1.1-1.5,1.1-1.5s0.9,0.1,0.8,3.6c0,0-0.1,1.8,1.1,3.2"/>
	<path class="st5" d="M113.9,43c0,0,4-3.6,7.1-3.5c3.1,0.1,4.9,1.3,4.9,1.3s4.5,2,1.1,4.4"/>
	<path class="st5" d="M107.4,42.6c0,0,8.1-7.9,9.7-8.6c0,0,2.1-1.7,5.2,0.5l15.8,7.6c0,0,3,1.3,0,3.6"/>
	<path class="st5" d="M126.2,36.3c0,0,2.6-2.1,7-1.8l3.2,0c0,0,3.3,0.2,0.8,2.9c-2.6,2.6-2.8,2.9-2.8,2.9"/>
	<path class="st5" d="M108.5,27.8c0,0,7.1,5.3,10.3,5.6"/>
	<path class="st5" d="M105.4,34c0,0,5.3,3.7,7,4"/>
	<path class="st5" d="M119.6,33.3l8-5.2c0,0,3.3-2.1,6.9,0.3l13,5.7c0,0,2.9,1.2,0.3,3.9c-2.6,2.6,0.3,4.9,0.3,4.9l8.8,4.5"/>
	<text transform="matrix(1 0 0 1 178.7812 30.6277)"><tspan x="0" y="0" class="st6 st7 st8">RC</tspan><tspan x="22.3" y="0" class="st7 st8"> </tspan><tspan x="0" y="20.8" class="st4 st7 st8">SHOES</tspan></text>
</g>
</svg>
